#N canvas 656 294 497 561 12;
#X declare -lib pdlua;
#X obj 35 31 declare -lib pdlua;
#X obj 36 376 npy;
#X msg 40 162 open \$1;
#X obj 39 108 bng 19 250 50 0 empty empty empty 0 -10 0 12 #fcfcfc #000000 #000000;
#X obj 40 135 openpanel;
#X msg 149 161 bang;
#X msg 142 347 meta;
#X listbox 121 442 7 0 0 0 - - - 0;
#X msg 148 203 row 0;
#X msg 147 241 col 1;
#X text 261 312 normalize array min max;
#X msg 146 277 1 1;
#X text 189 347 all info;
#X msg 143 312 normalize -1 1;
#X obj 121 414 route shape;
#X obj 37 493 print;
#X text 191 162 flush all rows;
#X text 197 203 get row n;
#X text 196 240 get col n;
#X text 183 277 get value at cell coordinates col row;
#X connect 1 0 15 0;
#X connect 1 1 14 0;
#X connect 2 0 1 0;
#X connect 3 0 4 0;
#X connect 4 0 2 0;
#X connect 5 0 1 0;
#X connect 6 0 1 0;
#X connect 8 0 1 0;
#X connect 9 0 1 0;
#X connect 11 0 1 0;
#X connect 13 0 1 0;
#X connect 14 0 7 0;
