#N canvas 28 48 1573 938 12;
#X declare -lib pdlua;
#X declare -path npy-pd;
#X declare -lib zexy;
#X declare -path vstplugin~;
#X obj 35 21 declare -lib pdlua;
#X obj 36 436 npy;
#X msg 36 302 open \$1;
#X obj 36 248 bng 19 250 50 0 empty empty open\ npy 0 -10 0 12 #fcfcfc #000000 #000000;
#X obj 36 275 openpanel;
#X obj 35 51 declare -path npy-pd;
#X obj 828 783 vstplugin~;
#X obj 462 896 dac~;
#X obj 827 681 *~;
#X obj 918 662 line~;
#X msg 961 630 0 500;
#X msg 918 630 1 10;
#X obj 917 576 del 70;
#X obj 917 548 bng 19 250 50 0 empty empty ping\ (loop) 0 -10 0 12 #fcfcfc #000000 #000000;
#X obj 774 743 r msg;
#X obj 1026 105 f;
#X obj 1075 103 + 1;
#X obj 1025 35 tgl 19 0 empty empty start 0 -10 0 12 #fcfcfc #000000 #000000 0 1;
#X floatatom 1115 127 5 0 0 0 - - - 0;
#X obj 961 605 del 100;
#X obj 1073 300 f;
#X obj 1027 256 t f f b;
#X obj 1364 814 vcf~;
#X obj 1459 709 + 5000;
#X obj 1459 682 random 4000;
#X obj 1440 768 loadbang;
#X msg 1440 792 5;
#X obj 1364 735 hip~ 1000;
#X obj 1364 850 *~ 2;
#X obj 1364 653 t b b;
#X obj 1133 821 vcf~;
#X obj 1228 736 + 5000;
#X obj 1228 701 random 4000;
#X obj 1235 764 loadbang;
#X msg 1235 789 5;
#X obj 1133 742 hip~ 1000;
#X obj 1133 857 *~ 2;
#X obj 1133 661 t b b;
#X obj 916 495 select 0;
#X obj 827 630 osc~ 2174;
#X obj 891 847 throw~ snd-r;
#X obj 829 882 throw~ snd-l;
#N canvas 295 328 450 300 vst-settings 0;
#X msg 141 62 open -e ValhallaSupermassive;
#X msg 150 137 param_set 3 0.45;
#X msg 151 169 param_set 4 0.2;
#X msg 147 202 param_set 6 0.25;
#X obj 86 245 s msg;
#X msg 151 106 param_set 0 0.5;
#X obj 67 10 loadbang;
#X obj 67 37 t b b b b b;
#X msg 138 11 bang;
#X connect 0 0 4 0;
#X connect 1 0 4 0;
#X connect 2 0 4 0;
#X connect 3 0 4 0;
#X connect 5 0 4 0;
#X connect 6 0 7 0;
#X connect 7 0 3 0;
#X connect 7 1 2 0;
#X connect 7 2 1 0;
#X connect 7 3 5 0;
#X connect 7 4 0 0;
#X connect 8 0 7 0;
#X restore 33 161 pd vst-settings;
#X obj 34 79 declare -lib zexy;
#X obj 520 779 catch~ snd-r;
#X obj 462 750 catch~ snd-l;
#X obj 462 868 *~;
#X obj 520 868 *~;
#X obj 541 836 hsl 162 19 0 1 0 0 empty empty Volume -2 -10 0 12 #fcfcfc #000000 #000000 0 1;
#X obj 1140 79 r length;
#N canvas 0 22 450 278 (subpatch) 0;
#X array spread 51 float 3;
#A 0 0.000634158 0.00961895 0.0445284 0.124066 0.257247 0.436024 0.634777 0.817059 0.946892 1 0.970558 0.871115 0.726337 0.563755 0.405619 0.264992 0.14687 0.0526021 0.0155862 0.0528818 0.054119 0.0186893 0.0448772 0.117836 0.175286 0.194423 0.163745 0.0890393 0.00696275 0.0918004 0.134836 0.118586 0.0451454 0.0650017 0.181298 0.275017 0.329713 0.345895 0.338152 0.326331 0.324915 0.335439 0.345303 0.333408 0.279982 0.176174 0.0292425 0.138768 0.298021 0.420311 0;
#A color 0;
#A width 2;
#X coords 0 1 51 -1 200 140 1;
#X restore 473 537 graph;
#X obj 1026 221 tabread spread;
#X obj 36 791 expr max(max($f1 \, $f2) \, $f3) - min(min($f1 \, $f2) \, $f3);
#X obj 36 856 tabwrite spread;
#X obj 200 306 until;
#X obj 201 270 t f b;
#X msg 256 305 0;
#X obj 200 336 f;
#X obj 255 338 + 1;
#X msg 63 402 col \$1;
#X msg 252 486 \; spread normalize 1;
#X obj 1133 548 bng 19 250 50 0 empty empty click\ left\ (ascending) 0 -10 0 12 #fcfcfc #000000 #000000;
#X obj 1364 544 bng 19 250 50 0 empty empty click\ right\ (descending) 0 -10 0 12 #fcfcfc #000000 #000000;
#X obj 1051 345 expr if(abs($f1-$f2) < 0.01 \, 1 \, if($f1-$f2 > 0 \, 2 \, 3));
#X obj 1051 373 select 1 2 3;
#X obj 1026 68 metro 120;
#N canvas 0 22 450 278 (subpatch) 0;
#X array q1 51 float 3;
#A 0 0.980133 0.922105 0.830482 0.71237 0.576725 0.433488 0.292649 0.163339 0.0530345 -0.0330282 -0.0921901 -0.124427 -0.132136 -0.119691 -0.0928338 -0.0579687 -0.0214622 0.0109839 0.0348152 0.0469187 0.0457133 0.0310436 0.00391522 -0.0338762 -0.0801568 -0.13276 -0.18983 -0.249996 -0.312402 -0.376593 -0.442282 -0.509053 -0.576046 -0.641691 -0.70356 -0.758349 -0.802041 -0.83023 -0.838577 -0.823351 -0.781985 -0.713571 -0.61922 -0.50223 -0.368021 -0.223822 -0.0781334 0.0599922 0.181781 0.279586 1;
#A color 0;
#A width 2;
#X coords 0 1 51 -1 200 140 1;
#X restore 473 45 graph;
#X obj 51 649 unpack f f f;
#N canvas 0 22 450 278 (subpatch) 0;
#X array q2 51 float 3;
#A 0 0.980329 0.925085 0.844276 0.750805 0.656418 0.568565 0.489298 0.416457 0.346374 0.276764 0.208481 0.145437 0.0928778 0.0549557 0.0328237 0.0241237 0.024037 0.0272797 0.0299867 0.0305364 0.0289477 0.0252538 0.0178178 0.00262854 -0.0258544 -0.0725295 -0.139104 -0.222413 -0.314559 -0.405032 -0.484053 -0.54579 -0.590031 -0.621554 -0.647395 -0.673151 -0.699899 -0.723074 -0.73382 -0.722256 -0.681329 -0.609655 -0.512248 -0.398943 -0.281285 -0.169245 -0.0690743 0.0170031 0.0894562 0.149377 1;
#A color 0;
#A width 2;
#X coords 0 1 51 -1 200 140 1;
#X restore 473 207 graph;
#N canvas 0 22 450 278 (subpatch) 0;
#X array q3 51 float 3;
#A 0 0.980133 0.922105 0.830482 0.71237 0.576725 0.433488 0.292649 0.163339 0.0530345 -0.0330282 -0.0921901 -0.124427 -0.132136 -0.119691 -0.0928338 -0.0579687 -0.0214622 0.0109839 0.0348152 0.0469187 0.0457133 0.0310436 0.00391522 -0.0338762 -0.0801568 -0.13276 -0.18983 -0.249996 -0.312402 -0.376593 -0.442282 -0.509053 -0.576046 -0.641691 -0.70356 -0.758349 -0.802041 -0.83023 -0.838577 -0.823351 -0.781985 -0.713571 -0.61922 -0.50223 -0.368021 -0.223822 -0.0781334 0.0599922 0.181781 0.279586 1;
#A color 0;
#A width 2;
#X coords 0 1 51 -1 200 140 1;
#X restore 473 371 graph;
#X obj 51 681 tabwrite q1;
#X obj 123 713 tabwrite q2;
#X obj 186 740 tabwrite q3;
#X obj 1008 548 bng 19 250 50 0 empty empty silence\ (flat) 0 -10 0 12 #fcfcfc #000000 #000000;
#N canvas 0 33 450 497 filter 0;
#X obj 63 43 inlet;
#X obj 185 192 line~;
#X obj 185 230 cos~;
#X obj 185 68 loadbang;
#X msg 185 91 -0.25;
#X obj 91 327 *~;
#X obj 90 354 hip~ 5;
#X obj 312 237 osc~ 440;
#X obj 185 253 *~ 0.1;
#X obj 312 272 *~;
#X obj 330 298 *~;
#X obj 296 303 *~;
#X obj 48 141 biquad~ 0 0 1 -1 0;
#X obj 63 70 t b;
#X obj 97 70 del 3;
#X obj 63 99 1;
#X obj 97 101 0;
#X obj 50 397 outlet~;
#X obj 48 173 *~;
#X connect 0 0 13 0;
#X connect 1 0 2 0;
#X connect 2 0 8 0;
#X connect 3 0 4 0;
#X connect 4 0 1 0;
#X connect 5 0 6 0;
#X connect 6 0 17 0;
#X connect 7 0 5 1;
#X connect 7 0 9 0;
#X connect 7 0 9 1;
#X connect 7 0 10 0;
#X connect 8 0 5 0;
#X connect 9 0 10 1;
#X connect 9 0 5 1;
#X connect 9 0 11 0;
#X connect 9 0 11 1;
#X connect 10 0 5 1;
#X connect 11 0 5 1;
#X connect 12 0 18 0;
#X connect 13 0 14 0;
#X connect 13 0 15 0;
#X connect 14 0 16 0;
#X connect 15 0 12 0;
#X connect 15 0 18 1;
#X connect 16 0 12 0;
#X connect 16 0 18 1;
#X connect 18 0 17 0;
#X restore 1133 708 pd filter;
#N canvas 0 33 429 488 filter 0;
#X obj 39 39 inlet;
#X obj 235 207 line~;
#X obj 235 230 cos~;
#X obj 235 68 loadbang;
#X msg 235 91 -0.25;
#X obj 235 276 *~;
#X obj 75 311 hip~ 5;
#X obj 308 264 osc~ 440;
#X obj 235 253 *~ 0.1;
#X obj 308 299 *~;
#X obj 326 325 *~;
#X obj 292 330 *~;
#X obj 41 148 biquad~ 0 0 1 -1 0;
#X obj 40 67 t b;
#X obj 86 69 del 3;
#X obj 39 98 1;
#X obj 78 98 0;
#X obj 41 355 outlet~;
#X obj 41 192 *~;
#X connect 0 0 13 0;
#X connect 1 0 2 0;
#X connect 2 0 8 0;
#X connect 3 0 4 0;
#X connect 4 0 1 0;
#X connect 5 0 6 0;
#X connect 6 0 17 0;
#X connect 7 0 5 1;
#X connect 7 0 9 0;
#X connect 7 0 9 1;
#X connect 7 0 10 0;
#X connect 8 0 5 0;
#X connect 9 0 10 1;
#X connect 9 0 5 1;
#X connect 9 0 11 0;
#X connect 9 0 11 1;
#X connect 10 0 5 1;
#X connect 11 0 5 1;
#X connect 12 0 18 0;
#X connect 13 0 14 0;
#X connect 13 0 15 0;
#X connect 14 0 16 0;
#X connect 15 0 12 0;
#X connect 15 0 18 1;
#X connect 16 0 12 0;
#X connect 16 0 18 1;
#X connect 18 0 17 0;
#X restore 1364 701 pd filter;
#X obj 54 462 route shape;
#X obj 54 489 unpack f f;
#X msg 176 663 \; spread resize \$1;
#X msg 121 547 \; q1 resize \$1;
#X msg 139 586 \; q2 resize \$1;
#X msg 157 625 \; q3 resize \$1;
#X obj 121 517 t f f f f f;
#X obj 252 462 select;
#X obj 282 392 t f f;
#X obj 314 418 - 1;
#X msg 831 107 set q1;
#X msg 831 138 set q2;
#X msg 830 168 set q3;
#X msg 830 200 set spread;
#X obj 34 108 declare -path vstplugin~;
#X obj 262 559 s length;
#X obj 1115 103 %;
#X msg 629 784 \; pd dsp \$1;
#X obj 629 754 tgl 19 0 empty empty empty 0 -10 0 12 #fcfcfc #000000 #000000 0 1;
#X text 828 81 select array;
#X obj 828 820 *~ 0.05;
#X obj 891 820 *~ 0.05;
#X obj 1133 885 throw~ snd-l;
#X obj 1364 876 throw~ snd-r;
#X text 160 154 install ValhallaSupermassive from valhalladsp.com/demos-downloads/;
#X connect 1 0 52 0;
#X connect 1 0 67 0;
#X connect 1 1 76 0;
#X connect 2 0 1 0;
#X connect 3 0 4 0;
#X connect 4 0 2 0;
#X connect 6 0 96 0;
#X connect 6 1 97 0;
#X connect 8 0 6 1;
#X connect 8 0 6 0;
#X connect 9 0 8 1;
#X connect 10 0 9 0;
#X connect 11 0 9 0;
#X connect 12 0 11 0;
#X connect 12 0 19 0;
#X connect 13 0 12 0;
#X connect 14 0 6 0;
#X connect 15 0 16 0;
#X connect 15 0 51 0;
#X connect 15 0 38 0;
#X connect 16 0 92 0;
#X connect 17 0 65 0;
#X connect 19 0 10 0;
#X connect 20 0 63 1;
#X connect 21 0 20 1;
#X connect 21 1 63 0;
#X connect 21 2 20 0;
#X connect 22 0 28 0;
#X connect 23 0 22 1;
#X connect 24 0 23 0;
#X connect 25 0 26 0;
#X connect 26 0 22 2;
#X connect 27 0 22 0;
#X connect 28 0 99 0;
#X connect 29 0 75 0;
#X connect 29 1 24 0;
#X connect 30 0 36 0;
#X connect 31 0 30 1;
#X connect 32 0 31 0;
#X connect 33 0 34 0;
#X connect 34 0 30 2;
#X connect 35 0 30 0;
#X connect 36 0 98 0;
#X connect 37 0 74 0;
#X connect 37 1 32 0;
#X connect 38 0 13 0;
#X connect 39 0 8 0;
#X connect 44 0 47 0;
#X connect 45 0 46 0;
#X connect 46 0 7 0;
#X connect 47 0 7 1;
#X connect 48 0 47 1;
#X connect 48 0 46 1;
#X connect 49 0 92 1;
#X connect 51 0 21 0;
#X connect 52 0 53 0;
#X connect 54 0 57 0;
#X connect 55 0 54 0;
#X connect 55 1 56 0;
#X connect 56 0 57 1;
#X connect 57 0 58 0;
#X connect 57 0 59 0;
#X connect 57 0 53 1;
#X connect 57 0 70 1;
#X connect 57 0 71 1;
#X connect 57 0 72 1;
#X connect 57 0 83 0;
#X connect 58 0 57 1;
#X connect 59 0 1 0;
#X connect 61 0 37 0;
#X connect 62 0 29 0;
#X connect 63 0 64 0;
#X connect 64 0 73 0;
#X connect 64 1 61 0;
#X connect 64 2 62 0;
#X connect 65 0 15 0;
#X connect 67 0 70 0;
#X connect 67 1 71 0;
#X connect 67 2 72 0;
#X connect 74 0 35 0;
#X connect 75 0 27 0;
#X connect 76 0 77 0;
#X connect 77 1 82 0;
#X connect 82 0 79 0;
#X connect 82 1 80 0;
#X connect 82 2 81 0;
#X connect 82 3 78 0;
#X connect 82 4 84 0;
#X connect 82 4 91 0;
#X connect 83 0 60 0;
#X connect 84 0 55 0;
#X connect 84 1 85 0;
#X connect 85 0 83 1;
#X connect 86 0 51 0;
#X connect 87 0 51 0;
#X connect 88 0 51 0;
#X connect 89 0 51 0;
#X connect 92 0 15 1;
#X connect 92 0 18 0;
#X connect 94 0 93 0;
#X connect 96 0 41 0;
#X connect 97 0 40 0;
