#N canvas 1073 151 661 780 12;
#X declare -lib pdlua;
#X declare -path ..;
#X obj 35 31 declare -lib pdlua;
#X obj 35 58 declare -path ..;
#X obj 36 486 npy;
#X msg 36 272 open \$1;
#X obj 35 218 bng 19 250 50 0 empty empty empty 0 -10 0 12 #fcfcfc #000000 #000000;
#X obj 36 245 openpanel;
#X obj 203 281 until;
#X msg 258 280 0;
#X obj 203 331 f;
#X obj 258 333 + 1;
#X msg 203 411 col \$1;
#X obj 473 348 pix_set 7 7;
#X msg 203 217 49;
#X msg 68 345 normalize 0 1;
#X obj 37 541 list append;
#X obj 37 568 t l;
#X obj 203 245 t f b b;
#X obj 215 644 list;
#X obj 79 512 t b b;
#X obj 215 693 print;
#X obj 215 357 select 48;
#X obj 268 693 list length;
#X floatatom 268 720 5 0 0 0 - - - 0;
#X obj 473 292 gemhead;
#X obj 473 527 square 4;
#X obj 472 494 pix_texture;
#X obj 34 152 gemwin;
#X msg 34 96 dimen 800 800 \, create \, 1;
#X msg 489 461 quality \$1;
#X obj 488 435 tgl 19 0 empty empty empty 0 -10 0 12 #fcfcfc #000000 #000000 0 1;
#X msg 545 305 RGB;
#X obj 545 280 loadbang;
#X msg 52 123 0 \, destroy;
#X connect 2 0 14 0;
#X connect 3 0 2 0;
#X connect 4 0 5 0;
#X connect 5 0 3 0;
#X connect 6 0 8 0;
#X connect 7 0 8 1;
#X connect 8 0 9 0;
#X connect 8 0 10 0;
#X connect 8 0 20 0;
#X connect 9 0 8 1;
#X connect 10 0 2 0;
#X connect 11 0 25 0;
#X connect 12 0 16 0;
#X connect 13 0 2 0;
#X connect 14 0 15 0;
#X connect 15 0 14 1;
#X connect 15 0 17 1;
#X connect 16 0 6 0;
#X connect 16 1 7 0;
#X connect 16 2 18 0;
#X connect 17 0 19 0;
#X connect 17 0 21 0;
#X connect 17 0 11 1;
#X connect 18 0 17 1;
#X connect 18 1 14 1;
#X connect 20 0 17 0;
#X connect 21 0 22 0;
#X connect 23 0 11 0;
#X connect 25 0 24 0;
#X connect 27 0 26 0;
#X connect 28 0 25 0;
#X connect 29 0 28 0;
#X connect 30 0 11 0;
#X connect 31 0 30 0;
#X connect 32 0 26 0;
